{
    "patcher": {
        "fileversion": 1,
        "appversion": {
            "major": 9,
            "minor": 1,
            "revision": 2,
            "architecture": "x64",
            "modernui": 1
        },
        "classnamespace": "box",
        "rect": [ 34.0, 157.0, 1981.0, 1084.0 ],
        "boxes": [
            {
                "box": {
                    "comment": "",
                    "id": "obj-9",
                    "index": 2,
                    "maxclass": "inlet",
                    "numinlets": 0,
                    "numoutlets": 1,
                    "outlettype": [ "" ],
                    "patching_rect": [ 549.0, 40.00000101976775, 30.0, 30.0 ]
                }
            },
            {
                "box": {
                    "id": "obj-18",
                    "maxclass": "newobj",
                    "numinlets": 1,
                    "numoutlets": 1,
                    "outlettype": [ "bang" ],
                    "patching_rect": [ 710.0, 215.0, 58.0, 22.0 ],
                    "text": "loadbang"
                }
            },
            {
                "box": {
                    "id": "obj-11",
                    "maxclass": "button",
                    "numinlets": 1,
                    "numoutlets": 1,
                    "outlettype": [ "bang" ],
                    "parameter_enable": 0,
                    "patching_rect": [ 645.67, 211.0, 24.0, 24.0 ]
                }
            },
            {
                "box": {
                    "id": "obj-16",
                    "maxclass": "message",
                    "numinlets": 2,
                    "numoutlets": 1,
                    "outlettype": [ "" ],
                    "patching_rect": [ 355.0, 284.0, 29.5, 22.0 ],
                    "text": "1.5"
                }
            },
            {
                "box": {
                    "id": "obj-7",
                    "maxclass": "newobj",
                    "numinlets": 2,
                    "numoutlets": 2,
                    "outlettype": [ "", "" ],
                    "patching_rect": [ 645.67, 305.0, 89.0, 22.0 ],
                    "text": "route threshold"
                }
            },
            {
                "box": {
                    "id": "obj-6",
                    "maxclass": "newobj",
                    "numinlets": 1,
                    "numoutlets": 2,
                    "outlettype": [ "", "" ],
                    "patching_rect": [ 645.67, 265.14, 150.0, 22.0 ],
                    "text": "patcherargs @threshold 2."
                }
            },
            {
                "box": {
                    "id": "obj-12",
                    "maxclass": "button",
                    "numinlets": 1,
                    "numoutlets": 1,
                    "outlettype": [ "bang" ],
                    "parameter_enable": 0,
                    "patching_rect": [ 109.5, 648.0, 24.0, 24.0 ]
                }
            },
            {
                "box": {
                    "id": "obj-13",
                    "maxclass": "newobj",
                    "numinlets": 2,
                    "numoutlets": 1,
                    "outlettype": [ "" ],
                    "patching_rect": [ 78.0, 613.0, 87.0, 22.0 ],
                    "text": "speedlim 1000"
                }
            },
            {
                "box": {
                    "id": "obj-15",
                    "maxclass": "button",
                    "numinlets": 1,
                    "numoutlets": 1,
                    "outlettype": [ "bang" ],
                    "parameter_enable": 0,
                    "patching_rect": [ 105.5, 572.6470812559128, 24.0, 24.0 ]
                }
            },
            {
                "box": {
                    "id": "obj-17",
                    "linecount": 4,
                    "maxclass": "comment",
                    "numinlets": 1,
                    "numoutlets": 0,
                    "patching_rect": [ 189.0, 424.0, 150.0, 60.0 ],
                    "text": "how big of a change compared to the last 100 values is needed to trigger?"
                }
            },
            {
                "box": {
                    "id": "obj-14",
                    "maxclass": "comment",
                    "numinlets": 1,
                    "numoutlets": 0,
                    "patching_rect": [ 318.0, 606.6470812559128, 150.0, 20.0 ],
                    "text": "fire max every.."
                }
            },
            {
                "box": {
                    "id": "obj-10",
                    "maxclass": "newobj",
                    "numinlets": 3,
                    "numoutlets": 1,
                    "outlettype": [ "float" ],
                    "patching_rect": [ 78.0, 254.0, 67.0, 22.0 ],
                    "text": "slide 20 20"
                }
            },
            {
                "box": {
                    "id": "obj-8",
                    "maxclass": "button",
                    "numinlets": 1,
                    "numoutlets": 1,
                    "outlettype": [ "bang" ],
                    "parameter_enable": 0,
                    "patching_rect": [ 247.5, 648.0, 24.0, 24.0 ]
                }
            },
            {
                "box": {
                    "id": "obj-5",
                    "maxclass": "newobj",
                    "numinlets": 2,
                    "numoutlets": 1,
                    "outlettype": [ "" ],
                    "patching_rect": [ 216.0, 605.6470812559128, 87.0, 22.0 ],
                    "text": "speedlim 1000"
                }
            },
            {
                "box": {
                    "id": "obj-4",
                    "maxclass": "button",
                    "numinlets": 1,
                    "numoutlets": 1,
                    "outlettype": [ "bang" ],
                    "parameter_enable": 0,
                    "patching_rect": [ 240.0, 572.6470812559128, 24.0, 24.0 ]
                }
            },
            {
                "box": {
                    "comment": "",
                    "id": "obj-3",
                    "index": 2,
                    "maxclass": "outlet",
                    "numinlets": 1,
                    "numoutlets": 0,
                    "patching_rect": [ 215.0, 679.6470812559128, 30.0, 30.0 ]
                }
            },
            {
                "box": {
                    "comment": "",
                    "id": "obj-2",
                    "index": 1,
                    "maxclass": "outlet",
                    "numinlets": 1,
                    "numoutlets": 0,
                    "patching_rect": [ 78.0, 679.6470812559128, 30.0, 30.0 ]
                }
            },
            {
                "box": {
                    "id": "obj-1",
                    "maxclass": "newobj",
                    "numinlets": 1,
                    "numoutlets": 3,
                    "outlettype": [ "", "int", "int" ],
                    "patching_rect": [ 78.2352973818779, 537.6470812559128, 48.0, 22.0 ],
                    "text": "change"
                }
            },
            {
                "box": {
                    "id": "obj-245",
                    "maxclass": "newobj",
                    "numinlets": 1,
                    "numoutlets": 3,
                    "outlettype": [ "", "int", "int" ],
                    "patching_rect": [ 216.0, 537.6470812559128, 48.0, 22.0 ],
                    "text": "change"
                }
            },
            {
                "box": {
                    "id": "obj-240",
                    "maxclass": "newobj",
                    "numinlets": 2,
                    "numoutlets": 1,
                    "outlettype": [ "int" ],
                    "patching_rect": [ 188.0, 194.0, 29.5, 22.0 ],
                    "text": "/"
                }
            },
            {
                "box": {
                    "id": "obj-241",
                    "maxclass": "newobj",
                    "numinlets": 2,
                    "numoutlets": 2,
                    "outlettype": [ "", "" ],
                    "patching_rect": [ 241.0, 160.0, 37.0, 22.0 ],
                    "text": "zl.len"
                }
            },
            {
                "box": {
                    "id": "obj-242",
                    "maxclass": "newobj",
                    "numinlets": 2,
                    "numoutlets": 2,
                    "outlettype": [ "", "" ],
                    "patching_rect": [ 188.0, 160.0, 43.0, 22.0 ],
                    "text": "zl.sum"
                }
            },
            {
                "box": {
                    "id": "obj-239",
                    "maxclass": "newobj",
                    "numinlets": 2,
                    "numoutlets": 2,
                    "outlettype": [ "", "" ],
                    "patching_rect": [ 205.0, 114.0, 81.0, 22.0 ],
                    "text": "zl.stream 100"
                }
            },
            {
                "box": {
                    "id": "obj-235",
                    "maxclass": "toggle",
                    "numinlets": 1,
                    "numoutlets": 1,
                    "outlettype": [ "int" ],
                    "parameter_enable": 0,
                    "patching_rect": [ 78.2352973818779, 490.5882557630539, 24.0, 24.0 ]
                }
            },
            {
                "box": {
                    "id": "obj-234",
                    "maxclass": "toggle",
                    "numinlets": 1,
                    "numoutlets": 1,
                    "outlettype": [ "int" ],
                    "parameter_enable": 0,
                    "patching_rect": [ 124.70588755607605, 490.5882557630539, 24.0, 24.0 ]
                }
            },
            {
                "box": {
                    "id": "obj-226",
                    "maxclass": "newobj",
                    "numinlets": 2,
                    "numoutlets": 1,
                    "outlettype": [ "int" ],
                    "patching_rect": [ 78.2352973818779, 457.6470779180527, 46.0, 22.0 ],
                    "text": "< -1.25"
                }
            },
            {
                "box": {
                    "id": "obj-225",
                    "maxclass": "newobj",
                    "numinlets": 2,
                    "numoutlets": 1,
                    "outlettype": [ "int" ],
                    "patching_rect": [ 124.70588755607605, 457.6470779180527, 36.0, 22.0 ],
                    "text": "> 2.5"
                }
            },
            {
                "box": {
                    "id": "obj-165",
                    "maxclass": "message",
                    "numinlets": 2,
                    "numoutlets": 1,
                    "outlettype": [ "" ],
                    "patching_rect": [ 78.0, 371.7647213935852, 79.0, 22.0 ],
                    "text": "0.857696"
                }
            },
            {
                "box": {
                    "id": "obj-161",
                    "maxclass": "newobj",
                    "numinlets": 2,
                    "numoutlets": 1,
                    "outlettype": [ "float" ],
                    "patching_rect": [ 78.0, 336.0, 29.5, 22.0 ],
                    "text": "- 0."
                }
            },
            {
                "box": {
                    "comment": "",
                    "id": "obj-246",
                    "index": 1,
                    "maxclass": "inlet",
                    "numinlets": 0,
                    "numoutlets": 1,
                    "outlettype": [ "" ],
                    "patching_rect": [ 77.82998700000002, 40.00000101976776, 30.0, 30.0 ]
                }
            }
        ],
        "lines": [
            {
                "patchline": {
                    "destination": [ "obj-13", 0 ],
                    "order": 1,
                    "source": [ "obj-1", 0 ]
                }
            },
            {
                "patchline": {
                    "destination": [ "obj-15", 0 ],
                    "order": 0,
                    "source": [ "obj-1", 0 ]
                }
            },
            {
                "patchline": {
                    "destination": [ "obj-161", 0 ],
                    "source": [ "obj-10", 0 ]
                }
            },
            {
                "patchline": {
                    "destination": [ "obj-6", 0 ],
                    "source": [ "obj-11", 0 ]
                }
            },
            {
                "patchline": {
                    "destination": [ "obj-12", 0 ],
                    "order": 0,
                    "source": [ "obj-13", 0 ]
                }
            },
            {
                "patchline": {
                    "destination": [ "obj-2", 0 ],
                    "order": 1,
                    "source": [ "obj-13", 0 ]
                }
            },
            {
                "patchline": {
                    "destination": [ "obj-225", 1 ],
                    "source": [ "obj-16", 0 ]
                }
            },
            {
                "patchline": {
                    "destination": [ "obj-165", 1 ],
                    "order": 0,
                    "source": [ "obj-161", 0 ]
                }
            },
            {
                "patchline": {
                    "destination": [ "obj-165", 0 ],
                    "order": 1,
                    "source": [ "obj-161", 0 ]
                }
            },
            {
                "patchline": {
                    "destination": [ "obj-225", 0 ],
                    "order": 0,
                    "source": [ "obj-165", 0 ]
                }
            },
            {
                "patchline": {
                    "destination": [ "obj-226", 0 ],
                    "order": 1,
                    "source": [ "obj-165", 0 ]
                }
            },
            {
                "patchline": {
                    "destination": [ "obj-11", 0 ],
                    "source": [ "obj-18", 0 ]
                }
            },
            {
                "patchline": {
                    "destination": [ "obj-234", 0 ],
                    "source": [ "obj-225", 0 ]
                }
            },
            {
                "patchline": {
                    "destination": [ "obj-235", 0 ],
                    "source": [ "obj-226", 0 ]
                }
            },
            {
                "patchline": {
                    "destination": [ "obj-245", 0 ],
                    "source": [ "obj-234", 0 ]
                }
            },
            {
                "patchline": {
                    "destination": [ "obj-1", 0 ],
                    "source": [ "obj-235", 0 ]
                }
            },
            {
                "patchline": {
                    "destination": [ "obj-241", 0 ],
                    "order": 0,
                    "source": [ "obj-239", 0 ]
                }
            },
            {
                "patchline": {
                    "destination": [ "obj-242", 0 ],
                    "order": 1,
                    "source": [ "obj-239", 0 ]
                }
            },
            {
                "patchline": {
                    "destination": [ "obj-161", 1 ],
                    "source": [ "obj-240", 0 ]
                }
            },
            {
                "patchline": {
                    "destination": [ "obj-240", 1 ],
                    "midpoints": [ 250.5, 194.00000101327896, 217.0333190560341, 194.00000101327896, 217.0333190560341, 191.00000101327896, 208.0, 191.00000101327896 ],
                    "source": [ "obj-241", 0 ]
                }
            },
            {
                "patchline": {
                    "destination": [ "obj-240", 0 ],
                    "midpoints": [ 197.5, 185.00000101327896, 197.5, 185.00000101327896 ],
                    "source": [ "obj-242", 0 ]
                }
            },
            {
                "patchline": {
                    "destination": [ "obj-4", 0 ],
                    "order": 0,
                    "source": [ "obj-245", 0 ]
                }
            },
            {
                "patchline": {
                    "destination": [ "obj-5", 0 ],
                    "order": 1,
                    "source": [ "obj-245", 0 ]
                }
            },
            {
                "patchline": {
                    "destination": [ "obj-10", 0 ],
                    "order": 1,
                    "source": [ "obj-246", 0 ]
                }
            },
            {
                "patchline": {
                    "destination": [ "obj-239", 0 ],
                    "order": 0,
                    "source": [ "obj-246", 0 ]
                }
            },
            {
                "patchline": {
                    "destination": [ "obj-3", 0 ],
                    "order": 1,
                    "source": [ "obj-5", 0 ]
                }
            },
            {
                "patchline": {
                    "destination": [ "obj-8", 0 ],
                    "order": 0,
                    "source": [ "obj-5", 0 ]
                }
            },
            {
                "patchline": {
                    "destination": [ "obj-7", 0 ],
                    "source": [ "obj-6", 1 ]
                }
            },
            {
                "patchline": {
                    "destination": [ "obj-16", 1 ],
                    "order": 0,
                    "source": [ "obj-7", 0 ]
                }
            },
            {
                "patchline": {
                    "destination": [ "obj-225", 1 ],
                    "order": 1,
                    "source": [ "obj-7", 0 ]
                }
            },
            {
                "patchline": {
                    "destination": [ "obj-226", 1 ],
                    "order": 2,
                    "source": [ "obj-7", 0 ]
                }
            },
            {
                "patchline": {
                    "destination": [ "obj-16", 1 ],
                    "source": [ "obj-9", 0 ]
                }
            }
        ]
    }
}