{
    "patcher": {
        "fileversion": 1,
        "appversion": {
            "major": 9,
            "minor": 1,
            "revision": 2,
            "architecture": "x64",
            "modernui": 1
        },
        "classnamespace": "box",
        "rect": [ 59.0, 120.0, 1000.0, 780.0 ],
        "boxes": [
            {
                "box": {
                    "id": "obj-3",
                    "maxclass": "message",
                    "numinlets": 2,
                    "numoutlets": 1,
                    "outlettype": [ "" ],
                    "patching_rect": [ 385.0, 188.0, 50.0, 22.0 ],
                    "text": "79"
                }
            },
            {
                "box": {
                    "id": "obj-20",
                    "maxclass": "message",
                    "numinlets": 2,
                    "numoutlets": 1,
                    "outlettype": [ "" ],
                    "patching_rect": [ 168.5, 188.0, 50.0, 22.0 ],
                    "text": "79"
                }
            },
            {
                "box": {
                    "id": "obj-18",
                    "maxclass": "newobj",
                    "numinlets": 1,
                    "numoutlets": 2,
                    "outlettype": [ "", "" ],
                    "patcher": {
                        "fileversion": 1,
                        "appversion": {
                            "major": 9,
                            "minor": 1,
                            "revision": 2,
                            "architecture": "x64",
                            "modernui": 1
                        },
                        "classnamespace": "box",
                        "rect": [ 113.0, 154.0, 769.0, 589.0 ],
                        "boxes": [
                            {
                                "box": {
                                    "comment": "",
                                    "id": "obj-5",
                                    "index": 2,
                                    "maxclass": "outlet",
                                    "numinlets": 1,
                                    "numoutlets": 0,
                                    "patching_rect": [ 159.0, 407.0, 30.0, 30.0 ]
                                }
                            },
                            {
                                "box": {
                                    "id": "obj-7",
                                    "maxclass": "message",
                                    "numinlets": 2,
                                    "numoutlets": 1,
                                    "outlettype": [ "" ],
                                    "patching_rect": [ 211.0, 287.95999099999995, 305.0, 22.0 ],
                                    "text": "64 64 64 64 64 64 64 64 64 64 64 64 64 64 64 64 64 64"
                                }
                            },
                            {
                                "box": {
                                    "id": "obj-4",
                                    "maxclass": "newobj",
                                    "numinlets": 2,
                                    "numoutlets": 2,
                                    "outlettype": [ "", "" ],
                                    "patching_rect": [ 50.0, 329.0, 43.0, 22.0 ],
                                    "text": "zl lace"
                                }
                            },
                            {
                                "box": {
                                    "id": "obj-1",
                                    "maxclass": "newobj",
                                    "numinlets": 1,
                                    "numoutlets": 1,
                                    "outlettype": [ "" ],
                                    "patching_rect": [ 50.0, 368.0, 86.0, 22.0 ],
                                    "text": "prepend chord"
                                }
                            },
                            {
                                "box": {
                                    "fontface": 1,
                                    "id": "obj-2",
                                    "maxclass": "comment",
                                    "numinlets": 1,
                                    "numoutlets": 0,
                                    "patching_rect": [ 182.0, 49.0, 160.0, 20.0 ],
                                    "text": "note names to numbers"
                                }
                            },
                            {
                                "box": {
                                    "id": "obj-3",
                                    "linecount": 2,
                                    "maxclass": "comment",
                                    "numinlets": 1,
                                    "numoutlets": 0,
                                    "patching_rect": [ 182.0, 76.0, 150.0, 33.0 ],
                                    "text": "either single noteNames\nor lists"
                                }
                            },
                            {
                                "box": {
                                    "id": "obj-21",
                                    "maxclass": "newobj",
                                    "numinlets": 1,
                                    "numoutlets": 2,
                                    "outlettype": [ "", "" ],
                                    "patching_rect": [ 50.0, 100.0, 114.0, 22.0 ],
                                    "text": "t l l"
                                }
                            },
                            {
                                "box": {
                                    "id": "obj-22",
                                    "maxclass": "newobj",
                                    "numinlets": 2,
                                    "numoutlets": 2,
                                    "outlettype": [ "", "" ],
                                    "patching_rect": [ 50.0, 287.959991, 114.0, 22.0 ],
                                    "text": "zl group"
                                }
                            },
                            {
                                "box": {
                                    "id": "obj-24",
                                    "maxclass": "comment",
                                    "numinlets": 1,
                                    "numoutlets": 0,
                                    "patching_rect": [ 72.0, 188.0, 68.0, 20.0 ],
                                    "text": "<--- nslider"
                                }
                            },
                            {
                                "box": {
                                    "id": "obj-28",
                                    "maxclass": "newobj",
                                    "numinlets": 2,
                                    "numoutlets": 1,
                                    "outlettype": [ "int" ],
                                    "patching_rect": [ 50.0, 237.959991, 32.0, 22.0 ],
                                    "text": "+ 12"
                                }
                            },
                            {
                                "box": {
                                    "bgcolor": [ 0.095481, 0.100396, 0.100293, 1.0 ],
                                    "clefs": 0,
                                    "fgcolor": [ 0.0, 0.0, 0.0, 1.0 ],
                                    "id": "obj-30",
                                    "ignoreclick": 1,
                                    "maxclass": "nslider",
                                    "numinlets": 2,
                                    "numoutlets": 2,
                                    "outlettype": [ "int", "int" ],
                                    "parameter_enable": 0,
                                    "patching_rect": [ 50.0, 168.959991, 22.0, 58.080002 ]
                                }
                            },
                            {
                                "box": {
                                    "id": "obj-31",
                                    "maxclass": "newobj",
                                    "numinlets": 2,
                                    "numoutlets": 2,
                                    "outlettype": [ "", "" ],
                                    "patching_rect": [ 145.0, 137.0, 39.0, 22.0 ],
                                    "text": "zl len"
                                }
                            },
                            {
                                "box": {
                                    "id": "obj-32",
                                    "maxclass": "newobj",
                                    "numinlets": 1,
                                    "numoutlets": 1,
                                    "outlettype": [ "" ],
                                    "patching_rect": [ 50.0, 137.0, 27.0, 22.0 ],
                                    "text": "iter"
                                }
                            },
                            {
                                "box": {
                                    "comment": "",
                                    "id": "obj-34",
                                    "index": 1,
                                    "maxclass": "inlet",
                                    "numinlets": 0,
                                    "numoutlets": 1,
                                    "outlettype": [ "" ],
                                    "patching_rect": [ 50.0, 40.0, 30.0, 30.0 ]
                                }
                            },
                            {
                                "box": {
                                    "comment": "",
                                    "id": "obj-35",
                                    "index": 1,
                                    "maxclass": "outlet",
                                    "numinlets": 1,
                                    "numoutlets": 0,
                                    "patching_rect": [ 50.0, 407.0, 30.0, 30.0 ]
                                }
                            }
                        ],
                        "lines": [
                            {
                                "patchline": {
                                    "destination": [ "obj-35", 0 ],
                                    "source": [ "obj-1", 0 ]
                                }
                            },
                            {
                                "patchline": {
                                    "destination": [ "obj-31", 0 ],
                                    "source": [ "obj-21", 1 ]
                                }
                            },
                            {
                                "patchline": {
                                    "destination": [ "obj-32", 0 ],
                                    "source": [ "obj-21", 0 ]
                                }
                            },
                            {
                                "patchline": {
                                    "destination": [ "obj-4", 0 ],
                                    "order": 1,
                                    "source": [ "obj-22", 0 ]
                                }
                            },
                            {
                                "patchline": {
                                    "destination": [ "obj-5", 0 ],
                                    "order": 0,
                                    "source": [ "obj-22", 0 ]
                                }
                            },
                            {
                                "patchline": {
                                    "destination": [ "obj-22", 0 ],
                                    "source": [ "obj-28", 0 ]
                                }
                            },
                            {
                                "patchline": {
                                    "destination": [ "obj-28", 0 ],
                                    "source": [ "obj-30", 0 ]
                                }
                            },
                            {
                                "patchline": {
                                    "destination": [ "obj-22", 1 ],
                                    "order": 1,
                                    "source": [ "obj-31", 0 ]
                                }
                            },
                            {
                                "patchline": {
                                    "destination": [ "obj-7", 0 ],
                                    "order": 0,
                                    "source": [ "obj-31", 0 ]
                                }
                            },
                            {
                                "patchline": {
                                    "destination": [ "obj-30", 0 ],
                                    "source": [ "obj-32", 0 ]
                                }
                            },
                            {
                                "patchline": {
                                    "destination": [ "obj-21", 0 ],
                                    "source": [ "obj-34", 0 ]
                                }
                            },
                            {
                                "patchline": {
                                    "destination": [ "obj-1", 0 ],
                                    "source": [ "obj-4", 0 ]
                                }
                            },
                            {
                                "patchline": {
                                    "destination": [ "obj-4", 1 ],
                                    "source": [ "obj-7", 0 ]
                                }
                            }
                        ]
                    },
                    "patching_rect": [ 314.0, 144.0, 152.0, 22.0 ],
                    "text": "p noteNames_to_numbers"
                }
            },
            {
                "box": {
                    "id": "obj-100",
                    "maxclass": "newobj",
                    "numinlets": 1,
                    "numoutlets": 2,
                    "outlettype": [ "", "" ],
                    "patcher": {
                        "fileversion": 1,
                        "appversion": {
                            "major": 9,
                            "minor": 1,
                            "revision": 2,
                            "architecture": "x64",
                            "modernui": 1
                        },
                        "classnamespace": "box",
                        "rect": [ 113.0, 154.0, 769.0, 589.0 ],
                        "boxes": [
                            {
                                "box": {
                                    "comment": "",
                                    "id": "obj-5",
                                    "index": 2,
                                    "maxclass": "outlet",
                                    "numinlets": 1,
                                    "numoutlets": 0,
                                    "patching_rect": [ 159.0, 407.0, 30.0, 30.0 ]
                                }
                            },
                            {
                                "box": {
                                    "id": "obj-7",
                                    "maxclass": "message",
                                    "numinlets": 2,
                                    "numoutlets": 1,
                                    "outlettype": [ "" ],
                                    "patching_rect": [ 211.0, 287.95999099999995, 305.0, 22.0 ],
                                    "text": "64 64 64 64 64 64 64 64 64 64 64 64 64 64 64 64 64 64"
                                }
                            },
                            {
                                "box": {
                                    "id": "obj-4",
                                    "maxclass": "newobj",
                                    "numinlets": 2,
                                    "numoutlets": 2,
                                    "outlettype": [ "", "" ],
                                    "patching_rect": [ 50.0, 329.0, 43.0, 22.0 ],
                                    "text": "zl lace"
                                }
                            },
                            {
                                "box": {
                                    "id": "obj-1",
                                    "maxclass": "newobj",
                                    "numinlets": 1,
                                    "numoutlets": 1,
                                    "outlettype": [ "" ],
                                    "patching_rect": [ 50.0, 368.0, 86.0, 22.0 ],
                                    "text": "prepend chord"
                                }
                            },
                            {
                                "box": {
                                    "fontface": 1,
                                    "id": "obj-2",
                                    "maxclass": "comment",
                                    "numinlets": 1,
                                    "numoutlets": 0,
                                    "patching_rect": [ 182.0, 49.0, 160.0, 20.0 ],
                                    "text": "note names to numbers"
                                }
                            },
                            {
                                "box": {
                                    "id": "obj-3",
                                    "linecount": 2,
                                    "maxclass": "comment",
                                    "numinlets": 1,
                                    "numoutlets": 0,
                                    "patching_rect": [ 182.0, 76.0, 150.0, 33.0 ],
                                    "text": "either single noteNames\nor lists"
                                }
                            },
                            {
                                "box": {
                                    "id": "obj-21",
                                    "maxclass": "newobj",
                                    "numinlets": 1,
                                    "numoutlets": 2,
                                    "outlettype": [ "", "" ],
                                    "patching_rect": [ 50.0, 100.0, 114.0, 22.0 ],
                                    "text": "t l l"
                                }
                            },
                            {
                                "box": {
                                    "id": "obj-22",
                                    "maxclass": "newobj",
                                    "numinlets": 2,
                                    "numoutlets": 2,
                                    "outlettype": [ "", "" ],
                                    "patching_rect": [ 50.0, 287.959991, 114.0, 22.0 ],
                                    "text": "zl group"
                                }
                            },
                            {
                                "box": {
                                    "id": "obj-24",
                                    "maxclass": "comment",
                                    "numinlets": 1,
                                    "numoutlets": 0,
                                    "patching_rect": [ 72.0, 188.0, 68.0, 20.0 ],
                                    "text": "<--- nslider"
                                }
                            },
                            {
                                "box": {
                                    "id": "obj-28",
                                    "maxclass": "newobj",
                                    "numinlets": 2,
                                    "numoutlets": 1,
                                    "outlettype": [ "int" ],
                                    "patching_rect": [ 50.0, 237.959991, 32.0, 22.0 ],
                                    "text": "+ 12"
                                }
                            },
                            {
                                "box": {
                                    "bgcolor": [ 0.095481, 0.100396, 0.100293, 1.0 ],
                                    "clefs": 0,
                                    "fgcolor": [ 0.0, 0.0, 0.0, 1.0 ],
                                    "id": "obj-30",
                                    "ignoreclick": 1,
                                    "maxclass": "nslider",
                                    "numinlets": 2,
                                    "numoutlets": 2,
                                    "outlettype": [ "int", "int" ],
                                    "parameter_enable": 0,
                                    "patching_rect": [ 50.0, 168.959991, 22.0, 58.080002 ]
                                }
                            },
                            {
                                "box": {
                                    "id": "obj-31",
                                    "maxclass": "newobj",
                                    "numinlets": 2,
                                    "numoutlets": 2,
                                    "outlettype": [ "", "" ],
                                    "patching_rect": [ 145.0, 137.0, 39.0, 22.0 ],
                                    "text": "zl len"
                                }
                            },
                            {
                                "box": {
                                    "id": "obj-32",
                                    "maxclass": "newobj",
                                    "numinlets": 1,
                                    "numoutlets": 1,
                                    "outlettype": [ "" ],
                                    "patching_rect": [ 50.0, 137.0, 27.0, 22.0 ],
                                    "text": "iter"
                                }
                            },
                            {
                                "box": {
                                    "comment": "",
                                    "id": "obj-34",
                                    "index": 1,
                                    "maxclass": "inlet",
                                    "numinlets": 0,
                                    "numoutlets": 1,
                                    "outlettype": [ "" ],
                                    "patching_rect": [ 50.0, 40.0, 30.0, 30.0 ]
                                }
                            },
                            {
                                "box": {
                                    "comment": "",
                                    "id": "obj-35",
                                    "index": 1,
                                    "maxclass": "outlet",
                                    "numinlets": 1,
                                    "numoutlets": 0,
                                    "patching_rect": [ 50.0, 407.0, 30.0, 30.0 ]
                                }
                            }
                        ],
                        "lines": [
                            {
                                "patchline": {
                                    "destination": [ "obj-35", 0 ],
                                    "source": [ "obj-1", 0 ]
                                }
                            },
                            {
                                "patchline": {
                                    "destination": [ "obj-31", 0 ],
                                    "source": [ "obj-21", 1 ]
                                }
                            },
                            {
                                "patchline": {
                                    "destination": [ "obj-32", 0 ],
                                    "source": [ "obj-21", 0 ]
                                }
                            },
                            {
                                "patchline": {
                                    "destination": [ "obj-4", 0 ],
                                    "order": 1,
                                    "source": [ "obj-22", 0 ]
                                }
                            },
                            {
                                "patchline": {
                                    "destination": [ "obj-5", 0 ],
                                    "order": 0,
                                    "source": [ "obj-22", 0 ]
                                }
                            },
                            {
                                "patchline": {
                                    "destination": [ "obj-22", 0 ],
                                    "source": [ "obj-28", 0 ]
                                }
                            },
                            {
                                "patchline": {
                                    "destination": [ "obj-28", 0 ],
                                    "source": [ "obj-30", 0 ]
                                }
                            },
                            {
                                "patchline": {
                                    "destination": [ "obj-22", 1 ],
                                    "order": 1,
                                    "source": [ "obj-31", 0 ]
                                }
                            },
                            {
                                "patchline": {
                                    "destination": [ "obj-7", 0 ],
                                    "order": 0,
                                    "source": [ "obj-31", 0 ]
                                }
                            },
                            {
                                "patchline": {
                                    "destination": [ "obj-30", 0 ],
                                    "source": [ "obj-32", 0 ]
                                }
                            },
                            {
                                "patchline": {
                                    "destination": [ "obj-21", 0 ],
                                    "source": [ "obj-34", 0 ]
                                }
                            },
                            {
                                "patchline": {
                                    "destination": [ "obj-1", 0 ],
                                    "source": [ "obj-4", 0 ]
                                }
                            },
                            {
                                "patchline": {
                                    "destination": [ "obj-4", 1 ],
                                    "source": [ "obj-7", 0 ]
                                }
                            }
                        ]
                    },
                    "patching_rect": [ 136.0, 144.0, 152.0, 22.0 ],
                    "text": "p noteNames_to_numbers"
                }
            },
            {
                "box": {
                    "id": "obj-17",
                    "maxclass": "number",
                    "numinlets": 1,
                    "numoutlets": 2,
                    "outlettype": [ "", "bang" ],
                    "parameter_enable": 0,
                    "patching_rect": [ 18.0, 347.0, 50.0, 22.0 ]
                }
            },
            {
                "box": {
                    "id": "obj-77",
                    "maxclass": "newobj",
                    "numinlets": 2,
                    "numoutlets": 1,
                    "outlettype": [ "int" ],
                    "patching_rect": [ 18.0, 378.0, 58.0, 22.0 ],
                    "text": "xbendout"
                }
            },
            {
                "box": {
                    "fontname": "Arial",
                    "fontsize": 13.0,
                    "id": "obj-232",
                    "maxclass": "newobj",
                    "numinlets": 2,
                    "numoutlets": 1,
                    "outlettype": [ "" ],
                    "patching_rect": [ 136.0, 341.0, 32.5, 23.0 ],
                    "text": "join"
                }
            },
            {
                "box": {
                    "id": "obj-233",
                    "maxclass": "newobj",
                    "numinlets": 3,
                    "numoutlets": 2,
                    "outlettype": [ "float", "float" ],
                    "patching_rect": [ 136.0, 310.0, 115.0, 22.0 ],
                    "text": "makenote 60 20000"
                }
            },
            {
                "box": {
                    "id": "obj-236",
                    "maxclass": "newobj",
                    "numinlets": 7,
                    "numoutlets": 2,
                    "outlettype": [ "int", "" ],
                    "patching_rect": [ 136.0, 378.0, 156.0, 22.0 ],
                    "text": "midiformat"
                }
            },
            {
                "box": {
                    "id": "obj-237",
                    "maxclass": "message",
                    "numinlets": 2,
                    "numoutlets": 1,
                    "outlettype": [ "" ],
                    "patching_rect": [ 381.0, 342.0, 181.0, 22.0 ],
                    "text": "mpeevent 1 1 1 225 37 39"
                }
            },
            {
                "box": {
                    "comment": "",
                    "id": "obj-13",
                    "index": 2,
                    "maxclass": "outlet",
                    "numinlets": 1,
                    "numoutlets": 0,
                    "patching_rect": [ 200.0, 475.0, 30.0, 30.0 ]
                }
            },
            {
                "box": {
                    "comment": "",
                    "id": "obj-11",
                    "index": 1,
                    "maxclass": "outlet",
                    "numinlets": 1,
                    "numoutlets": 0,
                    "patching_rect": [ 136.0, 475.0, 30.0, 30.0 ]
                }
            },
            {
                "box": {
                    "comment": "",
                    "id": "obj-10",
                    "index": 3,
                    "maxclass": "inlet",
                    "numinlets": 0,
                    "numoutlets": 1,
                    "outlettype": [ "" ],
                    "patching_rect": [ 306.0, 58.0, 30.0, 30.0 ]
                }
            },
            {
                "box": {
                    "comment": "",
                    "id": "obj-9",
                    "index": 2,
                    "maxclass": "inlet",
                    "numinlets": 0,
                    "numoutlets": 1,
                    "outlettype": [ "" ],
                    "patching_rect": [ 135.0, 58.0, 30.0, 30.0 ]
                }
            },
            {
                "box": {
                    "comment": "",
                    "id": "obj-8",
                    "index": 1,
                    "maxclass": "inlet",
                    "numinlets": 0,
                    "numoutlets": 1,
                    "outlettype": [ "" ],
                    "patching_rect": [ 18.0, 306.0, 30.0, 30.0 ]
                }
            }
        ],
        "lines": [
            {
                "patchline": {
                    "destination": [ "obj-18", 0 ],
                    "source": [ "obj-10", 0 ]
                }
            },
            {
                "patchline": {
                    "destination": [ "obj-20", 1 ],
                    "source": [ "obj-100", 1 ]
                }
            },
            {
                "patchline": {
                    "destination": [ "obj-77", 0 ],
                    "source": [ "obj-17", 0 ]
                }
            },
            {
                "patchline": {
                    "destination": [ "obj-3", 1 ],
                    "source": [ "obj-18", 1 ]
                }
            },
            {
                "patchline": {
                    "destination": [ "obj-236", 0 ],
                    "source": [ "obj-232", 0 ]
                }
            },
            {
                "patchline": {
                    "destination": [ "obj-232", 1 ],
                    "source": [ "obj-233", 1 ]
                }
            },
            {
                "patchline": {
                    "destination": [ "obj-232", 0 ],
                    "source": [ "obj-233", 0 ]
                }
            },
            {
                "patchline": {
                    "destination": [ "obj-11", 0 ],
                    "source": [ "obj-236", 0 ]
                }
            },
            {
                "patchline": {
                    "destination": [ "obj-11", 0 ],
                    "source": [ "obj-77", 0 ]
                }
            },
            {
                "patchline": {
                    "destination": [ "obj-17", 0 ],
                    "source": [ "obj-8", 0 ]
                }
            },
            {
                "patchline": {
                    "destination": [ "obj-100", 0 ],
                    "source": [ "obj-9", 0 ]
                }
            }
        ]
    }
}